<svg xmlns="http://www.w3.org/2000/svg" version="1.1" xmlns:xlink="http://www.w3.org/1999/xlink" xmlns:svgjs="http://svgjs.dev/svgjs" width="550" height="1440" preserveAspectRatio="none" viewBox="0 0 550 1440"><g mask="url(&quot;#SvgjsMask1007&quot;)" fill="none"><rect width="550" height="1440" x="0" y="0" fill="rgba(208, 195, 171, 1)"></rect><path d="M138 104.3C77.81 54.66 21.51 29.89 21.51 0C21.51 -22.26 79.75 0 138 0C207 0 207 0 276 0C345 0 345 0 414 0C483 0 517.5 -34.5 552 0C586.5 34.5 552 69 552 138C552 188.77 568.37 197.45 552 239.55C541.54 266.45 498.33 260.52 498.33 276C498.33 289.85 543.04 275.16 552 298.21C569.87 344.16 552 356.11 552 414C552 483 552 483 552 552C552 621 552 621 552 690C552 759 552 759 552 828C552 897 552 897 552 966C552 1028.29 558.4 1031.13 552 1090.58C550.97 1100.13 537.14 1095.77 537.14 1104C537.14 1118.58 550.13 1118.88 552 1136.2C557.56 1187.88 552 1189.1 552 1242C552 1278.9 569.55 1287.72 552 1315.81C526.43 1356.72 465.75 1351.85 465.75 1380C465.75 1405.17 530.37 1387.85 552 1422.46C573.5 1456.85 578.31 1496.54 552 1518C519.73 1544.31 480.72 1536.36 434.83 1518C411.72 1508.76 426.12 1462.8 414 1462.8C401.18 1462.8 410.07 1507.95 384.95 1518C341.07 1535.55 330.48 1518 276 1518C207 1518 207 1518 138 1518C85.05 1518 32.09 1543.64 32.09 1518C32.09 1476.67 84.23 1450.12 138 1384.06C140.39 1381.12 144.42 1381.96 144.42 1380C144.42 1378.09 140.62 1378.92 138 1376.32C71.14 1309.92 65.5 1312.46 5.45 1242C-3.5 1231.5 0.55 1228.41 0 1214.4C-2.17 1159.41 0 1159.2 0 1104C0 1081 -16.1 1070.55 0 1058C52.9 1016.76 68.95 1027.1 138 996.41C172.45 981.1 207 984.62 207 966C207 945.17 177.25 925.88 138 917.51C73.75 903.8 41.08 948.49 0 921.84C-27.92 903.73 0 874.92 0 828C0 762.84 -4.13 760.93 0 697.67C0.37 691.93 7.59 695.65 9 690C25.75 622.81 39.61 615.9 36.32 552C35.11 528.55 6.13 538.6 0 515.3C-12.03 469.6 0 464.65 0 414C0 345 0 345 0 276C0 226.25 -28.55 191.11 0 176.51C40.45 155.81 78.94 217.44 138 205.4C173.36 198.19 188.84 167.35 188.84 138C188.84 116.8 161.48 123.66 138 104.3" stroke="rgba(197, 182, 155, 1)" stroke-width="2"></path><path d="M138 353.85C121.35 353.85 110.72 386.44 110.72 414C110.72 430 122.84 440.97 138 440.97C158.2 440.97 181.44 431.77 181.44 414C181.44 388.21 156.71 353.85 138 353.85" stroke="rgba(197, 182, 155, 1)" stroke-width="2"></path><path d="M276 724.5C269.79 724.5 260.67 777.75 260.67 828C260.67 842.44 269.54 853.88 276 853.88C281.91 853.88 285.41 841.55 285.41 828C285.41 776.86 282.16 724.5 276 724.5" stroke="rgba(197, 182, 155, 1)" stroke-width="2"></path><path d="M138 64.19C99.68 35.3 66.31 18.39 66.31 0C66.31 -13.7 102.16 0 138 0C207 0 207 0 276 0C345 0 345 0 414 0C483 0 517.5 -34.5 552 0C586.5 34.5 552 69 552 138C552 156.23 564.38 174.45 552 174.45C518.38 174.45 505.96 156.33 460 138C436.96 128.81 437.24 119.42 414 119.42C387.4 119.42 381.66 120.46 360.33 138C312.66 177.19 307.23 232.87 276 232.87C251.75 232.87 278.66 173.8 249.37 138C209.66 89.46 191.21 104.3 138 64.19" stroke="rgba(197, 182, 155, 1)" stroke-width="2"></path><path d="M0 216.63C44.89 216.63 110.52 228.11 127.65 276C145.82 326.8 109.5 352.26 70.6 414C45.67 453.56 21.07 478.6 0 478.6C-14.23 478.6 0 446.3 0 414C0 345 0 345 0 276C0 246.32 -18.93 216.63 0 216.63" stroke="rgba(197, 182, 155, 1)" stroke-width="2"></path><path d="M245.33 414C276.18 377.34 240.13 337.13 276 316.59C324.47 288.83 345.37 312.11 414 317.4C483.37 322.75 507.36 306.61 552 337.86C576.36 354.91 552 375.93 552 414C552 483 552 483 552 552C552 552 552 552 552 552C511.75 621 478.67 618.31 471.5 690C464.87 756.31 491 765.54 524.4 828C531.25 840.81 549.31 827.12 552 840.55C563.11 896.12 552 903.28 552 966C552 1004.34 567.48 1011.22 552 1042.67C533.51 1080.22 485.69 1066.26 484.06 1104C481.38 1165.93 560.27 1185.51 543.38 1242C525.24 1302.65 479.37 1291.11 414 1338.28C383.75 1360.11 372.07 1350.11 352.14 1380C312.15 1439.97 328.11 1456.47 294.16 1518C290.04 1525.47 285.08 1518 276 1518C207 1518 207 1518 138 1518C105.1 1518 72.21 1533.93 72.21 1518C72.21 1492.32 99.24 1469.88 138 1434.79C175.46 1400.88 224.65 1406.46 224.65 1380C224.65 1354.22 176.76 1361.09 138 1330.32C89.85 1292.09 71.02 1295.57 50.84 1242C28.4 1182.41 27.32 1158.62 52.76 1104C70.9 1065.06 96.56 1054.88 138 1054.88C173.68 1054.88 189.19 1068.79 207 1104C236.51 1162.35 211.69 1175.88 232.63 1242C246.19 1284.82 251.64 1321.89 276 1321.89C302.52 1321.89 323.18 1287.48 334.38 1242C350.01 1178.53 310.02 1166.15 329.67 1104C349.83 1040.23 371.15 1046.53 414 990.15C423.59 977.53 434.55 979.37 434.55 966C434.55 946.29 424.66 944.8 414 924C389.3 875.8 369 878.94 363.82 828C357.1 761.94 413.17 741.28 390.21 690C369.26 643.23 330.71 631.89 276 631.89C234.18 631.89 225.13 651.69 197.14 690C156.13 746.12 168.25 755.76 138 820.74C136.13 824.76 136.97 826.37 132.89 828C67.97 853.92 49.63 875.84 0 875.84C-16.81 875.84 0 851.92 0 828C0 794.78 -15.78 787.49 0 761.56C26.22 718.49 67.89 736.47 84 690C104.21 631.69 56.74 613.62 72.63 552C83.74 508.93 100.54 510.55 138 480.62C186.89 441.55 207.18 459.35 245.33 414" stroke="rgba(197, 182, 155, 1)" stroke-width="2"></path><path d="M499.92 1518C499.92 1506.04 536.04 1475.54 552 1475.54C562.08 1475.54 563.7 1508.47 552 1518C537.66 1529.7 499.92 1527.27 499.92 1518" stroke="rgba(197, 182, 155, 1)" stroke-width="2"></path><path d="M138 24.07C121.75 24.07 111.12 6.9 111.12 0C111.12 -5.14 124.56 0 138 0C181.13 0 224.25 -5.9 224.25 0C224.25 6.13 178.32 24.07 138 24.07" stroke="rgba(197, 182, 155, 1)" stroke-width="2"></path><path d="M414 53.08C367.87 53.08 318.83 14.17 318.83 0C318.83 -12.37 366.41 0 414 0C451.29 0 488.59 -11.92 488.59 0C488.59 14.62 452.75 53.08 414 53.08" stroke="rgba(197, 182, 155, 1)" stroke-width="2"></path><path d="M0 256.74C14.56 256.74 37.62 256.5 41.4 276C52.86 335.13 46.43 350.12 30.49 414C25.73 433.07 9.1 441.89 0 441.89C-6.14 441.89 0 427.94 0 414C0 345 0 345 0 276C0 266.37 -6.14 256.74 0 256.74" stroke="rgba(197, 182, 155, 1)" stroke-width="2"></path><path d="M474.59 414C474.59 390.57 524.86 377.52 552 377.52C563.57 377.52 552 395.76 552 414C552 447.07 567.24 480.13 552 480.13C528.54 480.13 474.59 441.88 474.59 414" stroke="rgba(197, 182, 155, 1)" stroke-width="2"></path><path d="M108.95 552C108.95 532.7 118.32 526.47 138 520.28C201.85 500.19 206.67 506.63 276 499.43C344.67 492.3 354.08 474.83 414 491.63C447.85 501.12 463.54 522.19 463.54 552C463.54 580.78 446.37 605.48 414 608.82C352.6 615.16 340.92 560.69 276 571.37C202.92 583.39 188.31 660.05 138 654.22C104.78 650.37 108.95 599.67 108.95 552" stroke="rgba(197, 182, 155, 1)" stroke-width="2"></path><path d="M0 825.44C1.76 825.44 5.11 826.87 5.11 828C5.11 829.07 1.91 829.84 0 829.84C-0.65 829.84 0 828.92 0 828C0 826.72 -0.79 825.44 0 825.44" stroke="rgba(197, 182, 155, 1)" stroke-width="2"></path><path d="M507.96 966C507.96 945.13 539.27 918.95 552 918.95C561.29 918.95 552 942.47 552 966C552 980.38 559.78 994.75 552 994.75C537.76 994.75 507.96 983.03 507.96 966" stroke="rgba(197, 182, 155, 1)" stroke-width="2"></path><path d="M393.56 1104C394.88 1087.52 404.37 1076.4 414 1076.4C423.08 1076.4 428.93 1088.26 430.98 1104C439.71 1171.06 442.67 1177.53 435.56 1242C434.18 1254.55 423.81 1258.05 414 1258.05C406.4 1258.05 402.07 1252.09 400.73 1242C391.85 1175.06 388.25 1170.32 393.56 1104" stroke="rgba(197, 182, 155, 1)" stroke-width="2"></path><path d="M96.24 1242C96.24 1187.86 116.33 1124.44 138 1124.44C159.88 1124.44 183.34 1188.43 183.34 1242C183.34 1268.37 160.24 1284.32 138 1284.32C116.69 1284.32 96.24 1267.8 96.24 1242" stroke="rgba(197, 182, 155, 1)" stroke-width="2"></path><path d="M112.33 1518C112.33 1507.98 121.75 1485.53 138 1485.53C165.25 1485.53 199.33 1509.38 199.33 1518C199.33 1525.62 168.67 1518 138 1518C125.16 1518 112.33 1524.21 112.33 1518" stroke="rgba(197, 182, 155, 1)" stroke-width="2"></path></g><defs><mask id="SvgjsMask1007"><rect width="550" height="1440" fill="#ffffff"></rect></mask></defs></svg>